<svg xmlns="http://www.w3.org/2000/svg" viewBox="0 0 1200 750" fill="none">
  <rect width="1200" height="750" rx="48" fill="#F5F7FB"/>
  <rect x="52" y="52" width="1096" height="646" rx="34" fill="#FFFFFF" stroke="#DCE4EE"/>
  <text x="96" y="136" fill="#111827" font-family="Arial, sans-serif" font-size="56" font-weight="700">Fitness App</text>
  <text x="96" y="184" fill="#64748B" font-family="PingFang SC, Microsoft YaHei, Arial, sans-serif" font-size="24">Focused on gym users, smaller scope, faster decisions</text>
  <rect x="96" y="236" width="352" height="382" rx="30" fill="#0F172A"/>
  <rect x="492" y="236" width="612" height="166" rx="30" fill="#EEF4FF"/>
  <rect x="492" y="428" width="292" height="190" rx="30" fill="#EDF8F2"/>
  <rect x="812" y="428" width="292" height="190" rx="30" fill="#FFF4EA"/>
  <rect x="132" y="276" width="110" height="28" rx="14" fill="#1E293B"/>
  <text x="132" y="332" fill="#F8FAFC" font-family="Arial, sans-serif" font-size="28" font-weight="700">Gym users only</text>
  <rect x="132" y="372" width="168" height="18" rx="9" fill="#4ADE80"/>
  <rect x="132" y="410" width="132" height="18" rx="9" fill="#86EFAC"/>
  <rect x="132" y="448" width="184" height="18" rx="9" fill="#BBF7D0"/>
  <rect x="132" y="520" width="108" height="108" rx="24" fill="#1E293B" stroke="#334155"/>
  <path d="M164 574H208" stroke="#4ADE80" stroke-width="16" stroke-linecap="round"/>
  <path d="M186 552V596" stroke="#4ADE80" stroke-width="16" stroke-linecap="round"/>
  <rect x="536" y="280" width="228" height="18" rx="9" fill="#3158B8"/>
  <rect x="536" y="318" width="178" height="18" rx="9" fill="#9EB5EE"/>
  <rect x="536" y="356" width="264" height="18" rx="9" fill="#D4E0FF"/>
  <rect x="536" y="470" width="174" height="18" rx="9" fill="#3E7D71"/>
  <rect x="536" y="508" width="138" height="18" rx="9" fill="#8CCBB7"/>
  <rect x="856" y="470" width="178" height="18" rx="9" fill="#C97232"/>
  <rect x="856" y="508" width="126" height="18" rx="9" fill="#EAB17D"/>
</svg>
